<svg width="500" height="500" viewBox="0 0 500 500" fill="none" xmlns="http://www.w3.org/2000/svg">
  <defs>
    <linearGradient id="paint0_linear" x1="50" y1="50" x2="450" y2="450" gradientUnits="userSpaceOnUse">
      <stop stop-color="#2563EB"/>
      <stop offset="1" stop-color="#4F46E5"/>
    </linearGradient>
    <filter id="shadow" x="0" y="0" width="500" height="500" filterUnits="userSpaceOnUse" color-interpolation-filters="sRGB">
      <feFlood flood-opacity="0" result="BackgroundImageFix"/>
      <feColorMatrix in="SourceAlpha" type="matrix" values="0 0 0 0 0 0 0 0 0 0 0 0 0 0 0 0 0 0 127 0" result="hardAlpha"/>
      <feOffset dy="20"/>
      <feGaussianBlur stdDeviation="15"/>
      <feComposite in2="hardAlpha" operator="out"/>
      <feColorMatrix type="matrix" values="0 0 0 0 0.145098 0 0 0 0 0.388235 0 0 0 0 0.921569 0 0 0 0.25 0"/>
      <feBlend mode="normal" in2="BackgroundImageFix" result="effect1_dropShadow"/>
      <feBlend mode="normal" in="SourceGraphic" in2="effect1_dropShadow" result="shape"/>
    </filter>
  </defs>
  
  <g filter="url(#shadow)">
    <!-- Main Book Shape -->
    <path d="M100 120C100 108.954 108.954 100 120 100H380C391.046 100 400 108.954 400 120V380C400 391.046 391.046 400 380 400H120C108.954 400 100 391.046 100 380V120Z" fill="white"/>
    <path d="M100 120C100 108.954 108.954 100 120 100H380C391.046 100 400 108.954 400 120V380C400 391.046 391.046 400 380 400H120C108.954 400 100 391.046 100 380V120Z" fill="url(#paint0_linear)" fill-opacity="0.05"/>
    
    <!-- Abstract Pages / Digital Lines -->
    <rect x="160" y="180" width="180" height="24" rx="12" fill="url(#paint0_linear)"/>
    <rect x="160" y="230" width="140" height="24" rx="12" fill="url(#paint0_linear)" fill-opacity="0.7"/>
    <rect x="160" y="280" width="100" height="24" rx="12" fill="url(#paint0_linear)" fill-opacity="0.4"/>
    
    <!-- Book Spine Detail -->
    <path d="M100 140V360C100 371.046 108.954 380 120 380H140V120H120C108.954 120 100 128.954 100 140Z" fill="url(#paint0_linear)"/>
    
    <!-- Decorative Circle -->
    <circle cx="340" cy="300" r="40" fill="url(#paint0_linear)" fill-opacity="0.1"/>
    <path d="M340 280V320M320 300H360" stroke="url(#paint0_linear)" stroke-width="8" stroke-linecap="round"/>
  </g>
</svg>
